<svg width="506" height="138" viewBox="0 0 506 138" fill="none" xmlns="http://www.w3.org/2000/svg">
<g clip-path="url(#clip0_156_89)">
<path d="M90.5 104.824V86.6599L136.043 14.9092H151.704V40.0512H142.435L113.724 85.488V86.3403H178.444V104.824H90.5ZM142.862 124V99.2842L143.288 91.2409V14.9092H164.914V124H142.862Z" fill="#5289DC"/>
<path d="M326.444 104.824V86.6599L371.987 14.9092H387.648V40.0512H378.379L349.668 85.488V86.3403H414.388V104.824H326.444ZM378.805 124V99.2842L379.231 91.2409V14.9092H400.858V124H378.805Z" fill="#5289DC"/>
<mask id="mask0_156_89" style="mask-type:luminance" maskUnits="userSpaceOnUse" x="183" y="0" width="139" height="138">
<path d="M321.444 0H183.444V138H321.444V0Z" fill="white"/>
</mask>
<g mask="url(#mask0_156_89)">
<path d="M252.444 126.5C220.687 126.5 194.944 100.757 194.944 69C194.944 37.2428 220.687 11.5 252.444 11.5C284.201 11.5 309.944 37.2428 309.944 69C309.944 100.757 284.201 126.5 252.444 126.5ZM246.694 86.25V97.75H258.194V86.25H246.694ZM246.694 40.25V74.75H258.194V40.25H246.694Z" fill="url(#paint0_linear_156_89)"/>
</g>
<mask id="mask1_156_89" style="mask-type:luminance" maskUnits="userSpaceOnUse" x="0" y="44" width="72" height="50">
<path d="M71.7541 44H0.5V93.8779H71.7541V44Z" fill="white"/>
</mask>
<g mask="url(#mask1_156_89)">
<path d="M22.3126 44.2165C22.3159 44.1437 22.3196 44.0715 22.3237 44C22.3203 44.0724 22.3165 44.1445 22.3126 44.2165C21.9747 51.6386 25.6425 65.8522 43.0976 65.0032C35.9678 65.503 21.8391 70.5685 22.322 86.8298C22.1005 79.7375 17.5094 65.7229 0.941399 65.645C0.791298 65.6473 0.644104 65.6477 0.5 65.6462C0.648069 65.6447 0.7952 65.6443 0.941399 65.645C7.97462 65.5363 21.3883 61.1617 22.3126 44.2165Z" fill="#FDC63A"/>
<path d="M59.2834 68.2901C59.0806 72.7433 61.2813 81.2715 71.7544 80.7621C67.4765 81.0619 58.9992 84.1013 59.2891 93.8581C59.1561 89.6027 56.4015 81.1939 46.4607 81.1472C46.3706 81.1486 46.2822 81.1487 46.1958 81.1479C46.2846 81.147 46.3729 81.1467 46.4607 81.1472C50.6806 81.082 58.7288 78.4572 59.2834 68.2901Z" fill="#98B9FF"/>
</g>
<mask id="mask2_156_89" style="mask-type:luminance" maskUnits="userSpaceOnUse" x="433" y="44" width="72" height="50">
<path d="M504.754 44H433.5V93.8779H504.754V44Z" fill="white"/>
</mask>
<g mask="url(#mask2_156_89)">
<path d="M455.313 44.2165C455.316 44.1437 455.32 44.0715 455.324 44C455.32 44.0724 455.317 44.1445 455.313 44.2165C454.975 51.6386 458.642 65.8522 476.098 65.0032C468.968 65.503 454.839 70.5685 455.322 86.8298C455.1 79.7375 450.509 65.7229 433.941 65.645C433.791 65.6473 433.644 65.6477 433.5 65.6462C433.648 65.6447 433.795 65.6443 433.941 65.645C440.975 65.5363 454.388 61.1617 455.313 44.2165Z" fill="#98B9FF"/>
<path d="M492.283 68.2901C492.285 68.2464 492.288 68.203 492.29 68.1602C492.288 68.2036 492.286 68.2469 492.283 68.2901C492.081 72.7433 494.281 81.2715 504.754 80.7621C500.477 81.0619 491.999 84.1013 492.289 93.8581C492.156 89.6027 489.401 81.1939 479.461 81.1472C479.371 81.1486 479.282 81.1487 479.196 81.1479C479.285 81.147 479.373 81.1467 479.461 81.1472C483.681 81.082 491.729 78.4572 492.283 68.2901Z" fill="#FDC63A"/>
</g>
</g>
<defs>
<linearGradient id="paint0_linear_156_89" x1="194.944" y1="11.5" x2="330.9" y2="90.3804" gradientUnits="userSpaceOnUse">
<stop stop-color="#5289DC"/>
<stop offset="1" stop-color="#FDC63A"/>
</linearGradient>
<clipPath id="clip0_156_89">
<rect width="505" height="138" fill="white" transform="translate(0.5)"/>
</clipPath>
</defs>
</svg>
