<svg width="51" height="50" viewBox="0 0 51 50" fill="none" xmlns="http://www.w3.org/2000/svg">
<circle cx="25.6692" cy="11.5063" r="7.22032" stroke="#071628" stroke-width="0.946927"/>
<circle cx="25.6692" cy="9.23555" r="2.61063" fill="#EDAD0B" stroke="#071628" stroke-width="0.946927"/>
<mask id="path-3-outside-1_38_678" maskUnits="userSpaceOnUse" x="19.6946" y="12.4564" width="12" height="7" fill="black">
<rect fill="white" x="19.6946" y="12.4564" width="12" height="7"/>
<path fill-rule="evenodd" clip-rule="evenodd" d="M21.6946 16.941C22.0169 14.9648 23.732 13.4564 25.7994 13.4564C27.8193 13.4564 29.5029 14.8963 29.8798 16.8056C28.6942 17.6409 27.2482 18.1315 25.6877 18.1315C24.2134 18.1315 22.8414 17.6937 21.6946 16.941Z"/>
</mask>
<path fill-rule="evenodd" clip-rule="evenodd" d="M21.6946 16.941C22.0169 14.9648 23.732 13.4564 25.7994 13.4564C27.8193 13.4564 29.5029 14.8963 29.8798 16.8056C28.6942 17.6409 27.2482 18.1315 25.6877 18.1315C24.2134 18.1315 22.8414 17.6937 21.6946 16.941Z" fill="#EDAD0B"/>
<path d="M21.6946 16.941L20.76 16.7885L20.661 17.3953L21.175 17.7326L21.6946 16.941ZM29.8798 16.8056L30.4251 17.5797L30.9278 17.2255L30.8088 16.6222L29.8798 16.8056ZM22.6292 17.0934C22.878 15.5679 24.2036 14.4034 25.7994 14.4034V12.5095C23.2604 12.5095 21.1559 14.3616 20.76 16.7885L22.6292 17.0934ZM25.7994 14.4034C27.3583 14.4034 28.6597 15.5148 28.9508 16.989L30.8088 16.6222C30.346 14.2778 28.2802 12.5095 25.7994 12.5095V14.4034ZM29.3344 16.0315C28.3032 16.758 27.0466 17.1846 25.6877 17.1846V19.0784C27.4498 19.0784 29.0851 18.5238 30.4251 17.5797L29.3344 16.0315ZM25.6877 17.1846C24.4036 17.1846 23.2114 16.8038 22.2142 16.1493L21.175 17.7326C22.4715 18.5835 24.0232 19.0784 25.6877 19.0784V17.1846Z" fill="#071628" mask="url(#path-3-outside-1_38_678)"/>
<circle cx="14.0008" cy="38.4937" r="7.22032" stroke="#071628" stroke-width="0.946927"/>
<circle cx="14.0008" cy="36.223" r="2.61063" fill="#FC9824" stroke="#071628" stroke-width="0.946927"/>
<mask id="path-7-outside-2_38_678" maskUnits="userSpaceOnUse" x="8.02618" y="39.4439" width="12" height="7" fill="black">
<rect fill="white" x="8.02618" y="39.4439" width="12" height="7"/>
<path fill-rule="evenodd" clip-rule="evenodd" d="M10.0262 43.9284C10.3485 41.9522 12.0636 40.4439 14.131 40.4439C16.1508 40.4439 17.8344 41.8837 18.2113 43.7931C17.0257 44.6284 15.5798 45.1189 14.0192 45.1189C12.545 45.1189 11.173 44.6811 10.0262 43.9284Z"/>
</mask>
<path fill-rule="evenodd" clip-rule="evenodd" d="M10.0262 43.9284C10.3485 41.9522 12.0636 40.4439 14.131 40.4439C16.1508 40.4439 17.8344 41.8837 18.2113 43.7931C17.0257 44.6284 15.5798 45.1189 14.0192 45.1189C12.545 45.1189 11.173 44.6811 10.0262 43.9284Z" fill="#FC9824"/>
<path d="M10.0262 43.9284L9.0916 43.776L8.99263 44.3827L9.50659 44.7201L10.0262 43.9284ZM18.2113 43.7931L18.7567 44.5671L19.2594 44.213L19.1403 43.6097L18.2113 43.7931ZM10.9608 44.0809C11.2096 42.5553 12.5352 41.3908 14.131 41.3908V39.497C11.592 39.497 9.48747 41.3491 9.0916 43.776L10.9608 44.0809ZM14.131 41.3908C15.6899 41.3908 16.9913 42.5023 17.2823 43.9764L19.1403 43.6097C18.6775 41.2652 16.6118 39.497 14.131 39.497V41.3908ZM17.6659 43.019C16.6348 43.7455 15.3782 44.172 14.0192 44.172V46.0658C15.7813 46.0658 17.4167 45.5113 18.7567 44.5671L17.6659 43.019ZM14.0192 44.172C12.7352 44.172 11.543 43.7913 10.5458 43.1368L9.50659 44.7201C10.803 45.571 12.3548 46.0658 14.0192 46.0658V44.172Z" fill="#071628" mask="url(#path-7-outside-2_38_678)"/>
<circle cx="37.5735" cy="38.4937" r="7.22032" stroke="#071628" stroke-width="0.946927"/>
<circle cx="37.5735" cy="36.223" r="2.61063" fill="#5289DC" stroke="#071628" stroke-width="0.946927"/>
<mask id="path-11-outside-3_38_678" maskUnits="userSpaceOnUse" x="31.5989" y="39.4439" width="12" height="7" fill="black">
<rect fill="white" x="31.5989" y="39.4439" width="12" height="7"/>
<path fill-rule="evenodd" clip-rule="evenodd" d="M33.5989 43.9284C33.9213 41.9522 35.6363 40.4439 37.7037 40.4439C39.7236 40.4439 41.4072 41.8837 41.7841 43.7931C40.5985 44.6284 39.1525 45.1189 37.592 45.1189C36.1177 45.1189 34.7457 44.6811 33.5989 43.9284Z"/>
</mask>
<path fill-rule="evenodd" clip-rule="evenodd" d="M33.5989 43.9284C33.9213 41.9522 35.6363 40.4439 37.7037 40.4439C39.7236 40.4439 41.4072 41.8837 41.7841 43.7931C40.5985 44.6284 39.1525 45.1189 37.592 45.1189C36.1177 45.1189 34.7457 44.6811 33.5989 43.9284Z" fill="#5289DC"/>
<path d="M33.5989 43.9284L32.6643 43.776L32.5654 44.3827L33.0793 44.7201L33.5989 43.9284ZM41.7841 43.7931L42.3295 44.5671L42.8322 44.213L42.7131 43.6097L41.7841 43.7931ZM34.5335 44.0809C34.7823 42.5553 36.1079 41.3908 37.7037 41.3908V39.497C35.1647 39.497 33.0602 41.3491 32.6643 43.776L34.5335 44.0809ZM37.7037 41.3908C39.2626 41.3908 40.5641 42.5023 40.8551 43.9764L42.7131 43.6097C42.2503 41.2652 40.1845 39.497 37.7037 39.497V41.3908ZM41.2387 43.019C40.2075 43.7455 38.951 44.172 37.592 44.172V46.0658C39.3541 46.0658 40.9895 45.5112 42.3295 44.5671L41.2387 43.019ZM37.592 44.172C36.3079 44.172 35.1157 43.7913 34.1185 43.1368L33.0793 44.7201C34.3758 45.571 35.9275 46.0658 37.592 46.0658V44.172Z" fill="#071628" mask="url(#path-11-outside-3_38_678)"/>
<rect x="22.8284" y="24.7633" width="5.68156" height="5.68156" rx="2.84078" fill="#359115" stroke="#071628" stroke-width="0.473464"/>
<path fill-rule="evenodd" clip-rule="evenodd" d="M22.6479 27.3315C22.7013 26.3939 23.2335 25.5844 24.0038 25.1438C24.2647 25.0354 24.5508 24.9755 24.8508 24.9755C26.0702 24.9755 27.0587 25.964 27.0587 27.1834C27.0587 28.4027 26.0702 29.3912 24.8508 29.3912C23.6813 29.3912 22.7241 28.4818 22.6479 27.3315Z" fill="#49AA27"/>
<rect x="22.8284" y="24.7633" width="5.68156" height="5.68156" rx="2.84078" stroke="#071628" stroke-width="0.473464"/>
<path d="M24.6522 27.6576L25.2276 28.233C25.2645 28.27 25.3245 28.27 25.3615 28.233L26.6863 26.9082" stroke="white" stroke-width="0.710196" stroke-linecap="round"/>
<path d="M22.5917 30.6816L20.3319 32.9414" stroke="#49AA27" stroke-width="0.946927" stroke-linecap="round"/>
<path d="M28.7498 30.6816L31.0097 32.9414" stroke="#49AA27" stroke-width="0.946927" stroke-linecap="round"/>
<path d="M25.7872 23.4579V20.2621" stroke="#49AA27" stroke-width="0.946927" stroke-linecap="round"/>
</svg>
