<svg width="50" height="50" viewBox="0 0 50 50" fill="none" xmlns="http://www.w3.org/2000/svg">
<g clip-path="url(#clip0_38_851)">
<path d="M43.2121 23.2768C41.5189 32.3013 34.8015 38.6143 28.2084 37.3773C21.6154 36.1403 17.6433 27.8217 19.3365 18.7971C21.0297 9.77256 27.7471 3.45953 34.3402 4.69655C40.9332 5.93357 44.9053 14.2522 43.2121 23.2768Z" fill="#DEA000"/>
<path fill-rule="evenodd" clip-rule="evenodd" d="M36.8629 33.4464C39.4077 31.0548 41.4176 27.4185 42.2292 23.0923C43.0409 18.7662 42.4859 14.6487 40.9811 11.4972C39.4759 8.34488 37.0623 6.22474 34.1558 5.6794C31.2492 5.13406 28.2313 6.23512 25.6857 8.62744C23.1409 11.0191 21.131 14.6554 20.3194 18.9815C19.5077 23.3076 20.0627 27.4251 21.5675 30.5766C23.0727 33.729 25.4863 35.8491 28.3928 36.3945C31.2994 36.9398 34.3173 35.8387 36.8629 33.4464ZM28.2084 37.3773C34.8015 38.6143 41.5189 32.3013 43.2121 23.2768C44.9053 14.2522 40.9332 5.93357 34.3402 4.69655C27.7471 3.45953 21.0297 9.77256 19.3365 18.7971C17.6433 27.8217 21.6154 36.1403 28.2084 37.3773Z" fill="#071628"/>
<path d="M38.6644 22.4235C37.6162 28.0101 33.4578 31.9182 29.3764 31.1524C25.295 30.3866 22.8361 25.237 23.8842 19.6504C24.9324 14.0638 29.0908 10.1557 33.1722 10.9215C37.2536 11.6872 39.7125 16.8369 38.6644 22.4235Z" fill="#EDAD0B"/>
<path fill-rule="evenodd" clip-rule="evenodd" d="M34.473 28.4414C35.9835 27.0218 37.1923 24.8462 37.6815 22.2391C38.1707 19.632 37.8327 17.1662 36.9395 15.2956C36.0459 13.4241 34.6386 12.214 32.9878 11.9043C31.3371 11.5946 29.5868 12.2122 28.0756 13.6325C26.5651 15.0521 25.3563 17.2276 24.8671 19.8348C24.3779 22.4419 24.7159 24.9077 25.6091 26.7783C26.5027 28.6498 27.91 29.8598 29.5608 30.1696C31.2115 30.4793 32.9618 29.8617 34.473 28.4414ZM29.3764 31.1524C33.4578 31.9182 37.6162 28.0101 38.6644 22.4235C39.7125 16.8369 37.2536 11.6872 33.1722 10.9215C29.0908 10.1557 24.9324 14.0638 23.8842 19.6504C22.8361 25.237 25.295 30.3866 29.3764 31.1524Z" fill="#071628"/>
<path d="M34.8637 21.509C34.3396 24.3023 32.2604 26.2564 30.2197 25.8735C28.179 25.4906 26.9496 22.9158 27.4737 20.1225C27.9977 17.3292 30.0769 15.3751 32.1176 15.758C34.1583 16.1409 35.3878 18.7157 34.8637 21.509Z" fill="#FDC63A"/>
<path fill-rule="evenodd" clip-rule="evenodd" d="M32.4256 24.1536C33.0957 23.5238 33.6537 22.5351 33.8809 21.3246C34.108 20.1141 33.9463 18.9904 33.5501 18.1605C33.1534 17.3298 32.5636 16.8591 31.9332 16.7409C31.3028 16.6226 30.5826 16.8474 29.9118 17.4779C29.2416 18.1076 28.6836 19.0964 28.4565 20.3069C28.2294 21.5174 28.391 22.6411 28.7873 23.471C29.184 24.3017 29.7737 24.7724 30.4041 24.8906C31.0345 25.0089 31.7548 24.7841 32.4256 24.1536ZM30.2197 25.8735C32.2604 26.2564 34.3396 24.3023 34.8637 21.509C35.3878 18.7157 34.1583 16.1409 32.1176 15.758C30.0769 15.3751 27.9977 17.3292 27.4737 20.1225C26.9496 22.9158 28.179 25.4906 30.2197 25.8735Z" fill="#071628"/>
<path d="M31.5667 21.6481C31.4385 22.2528 30.8444 22.6391 30.2397 22.5109L12.7513 18.8032C12.1466 18.675 11.7603 18.0808 11.8885 17.4761C12.0167 16.8714 12.6109 16.4851 13.2156 16.6133L30.7039 20.321C31.3087 20.4492 31.6949 21.0434 31.5667 21.6481Z" fill="white"/>
<path fill-rule="evenodd" clip-rule="evenodd" d="M31.065 21.5261C31.0077 21.7962 30.7422 21.9687 30.4721 21.9115L13.9829 18.4148C13.7128 18.3575 13.5402 18.0921 13.5975 17.8219C13.6548 17.5518 13.9202 17.3792 14.1903 17.4365L30.6796 20.9332C30.9497 20.9905 31.1222 21.2559 31.065 21.5261Z" fill="#071628"/>
<path fill-rule="evenodd" clip-rule="evenodd" d="M21.4616 35.3847C21.6815 35.5517 21.7245 35.8653 21.5575 36.0853L17.3695 41.6018C17.2025 41.8217 16.8888 41.8647 16.6689 41.6977C16.4489 41.5307 16.406 41.2171 16.573 40.9971L20.761 35.4806C20.928 35.2606 21.2416 35.2177 21.4616 35.3847Z" fill="#071628"/>
<path fill-rule="evenodd" clip-rule="evenodd" d="M8.0466 14.4993C7.97513 14.766 7.70096 14.9243 7.43423 14.8528L5.73752 14.3982C5.47079 14.3267 5.3125 14.0526 5.38397 13.7858C5.45544 13.5191 5.72961 13.3608 5.99634 13.4323L7.69305 13.8869C7.95978 13.9584 8.11807 14.2325 8.0466 14.4993Z" fill="#071628"/>
<path fill-rule="evenodd" clip-rule="evenodd" d="M6.71529 17.8158C6.64382 18.0825 6.36965 18.2408 6.10292 18.1693L1.74357 17.0012C1.47684 16.9298 1.31855 16.6556 1.39002 16.3889C1.46149 16.1221 1.73566 15.9638 2.00239 16.0353L6.36173 17.2034C6.62847 17.2749 6.78676 17.549 6.71529 17.8158Z" fill="#071628"/>
<path fill-rule="evenodd" clip-rule="evenodd" d="M37.7677 36.7629C37.5477 36.9299 37.5048 37.2436 37.6718 37.4635L41.8598 42.98C42.0268 43.2 42.3404 43.2429 42.5604 43.0759C42.7803 42.909 42.8233 42.5953 42.6563 42.3754L38.4683 36.8588C38.3013 36.6389 37.9876 36.596 37.7677 36.7629Z" fill="#071628"/>
<path fill-rule="evenodd" clip-rule="evenodd" d="M29.2983 39.6171C29.0222 39.6171 28.7983 39.841 28.7983 40.1171L28.7983 47.0433C28.7983 47.3194 29.0222 47.5433 29.2983 47.5433C29.5745 47.5433 29.7983 47.3194 29.7983 47.0433L29.7983 40.1171C29.7983 39.841 29.5745 39.6171 29.2983 39.6171Z" fill="#071628"/>
<path d="M13.7012 19.1849L10.6345 18.5347C10.0943 18.4202 9.74914 17.8893 9.86368 17.349L10.0206 16.6089C10.1351 16.0687 10.666 15.7235 11.2062 15.8381L14.2729 16.4882L13.7012 19.1849Z" fill="#245DB4"/>
<path fill-rule="evenodd" clip-rule="evenodd" d="M14.6795 19.3923C14.5649 19.9325 14.0341 20.2777 13.4938 20.1631L10.4271 19.5129C9.34659 19.2839 8.65634 18.2222 8.88543 17.1416L9.04234 16.4015C9.27143 15.321 10.3331 14.6307 11.4136 14.8598L14.4803 15.51C15.0206 15.6245 15.3657 16.1554 15.2512 16.6956L14.6795 19.3923ZM13.7012 19.1849L14.2729 16.4882L11.2063 15.8381C10.666 15.7235 10.1351 16.0687 10.0206 16.6089L9.86368 17.349C9.74914 17.8893 10.0943 18.4202 10.6345 18.5347L13.7012 19.1849Z" fill="#071628"/>
</g>
<defs>
<clipPath id="clip0_38_851">
<rect width="50" height="50" fill="white"/>
</clipPath>
</defs>
</svg>
