<svg width="50" height="50" viewBox="0 0 50 50" fill="none" xmlns="http://www.w3.org/2000/svg">
<path d="M6.78662 38.5243C6.78662 36.5914 8.35362 35.0243 10.2866 35.0243H18.7925C20.7255 35.0243 22.2925 36.5914 22.2925 38.5243V46.5C22.2925 46.7761 22.0686 47 21.7925 47H7.28662C7.01048 47 6.78662 46.7761 6.78662 46.5V38.5243Z" fill="#FC9824" stroke="#071628"/>
<path fill-rule="evenodd" clip-rule="evenodd" d="M19.6873 35.3542C19.163 35.3542 18.7379 35.7792 18.7379 36.3035V42.2687C18.7379 43.3733 17.8425 44.2687 16.7379 44.2687L6.51525 44.2687C6.38898 44.2687 6.28662 44.3711 6.28662 44.4974C6.28662 45.9057 7.4283 47.0474 8.83662 47.0474H22.1613C22.2033 47.0474 22.2373 47.0134 22.2373 46.9714V37.9042C22.2373 36.4959 21.0956 35.3542 19.6873 35.3542Z" fill="#EF8A13"/>
<path d="M6.78662 38.5243C6.78662 36.5914 8.35362 35.0243 10.2866 35.0243H18.7925C20.7255 35.0243 22.2925 36.5914 22.2925 38.5243V46.5C22.2925 46.7761 22.0686 47 21.7925 47H7.28662C7.01048 47 6.78662 46.7761 6.78662 46.5V38.5243Z" stroke="#071628"/>
<path d="M27.7491 38.5243C27.7491 36.5914 29.3161 35.0243 31.2491 35.0243H39.7549C41.6879 35.0243 43.2549 36.5914 43.2549 38.5243V46.5C43.2549 46.7761 43.0311 47 42.7549 47H28.2491C27.9729 47 27.7491 46.7761 27.7491 46.5V38.5243Z" fill="#EDAD0B" stroke="#071628"/>
<path fill-rule="evenodd" clip-rule="evenodd" d="M40.6497 35.3542C40.1254 35.3542 39.7004 35.7792 39.7004 36.3035V42.2687C39.7004 43.3733 38.8049 44.2687 37.7004 44.2687L27.4777 44.2687C27.3514 44.2687 27.2491 44.3711 27.2491 44.4974C27.2491 45.9057 28.3907 47.0474 29.7991 47.0474H43.1238C43.1657 47.0474 43.1997 47.0134 43.1997 46.9714V37.9042C43.1997 36.4959 42.058 35.3542 40.6497 35.3542Z" fill="#DEA000"/>
<path d="M27.7491 38.5243C27.7491 36.5914 29.3161 35.0243 31.2491 35.0243H39.7549C41.6879 35.0243 43.2549 36.5914 43.2549 38.5243V46.5C43.2549 46.7761 43.0311 47 42.7549 47H28.2491C27.9729 47 27.7491 46.7761 27.7491 46.5V38.5243Z" stroke="#071628"/>
<mask id="path-7-outside-1_40_153" maskUnits="userSpaceOnUse" x="17.6214" y="4.29742" width="15" height="14" fill="black">
<rect fill="white" x="17.6214" y="4.29742" width="15" height="14"/>
<path fill-rule="evenodd" clip-rule="evenodd" d="M19.5936 6.26964C18.2973 7.56593 18.2973 9.66763 19.5936 10.9639L24.9958 16.3661L24.9962 16.3657L24.9966 16.3661L30.3978 10.965C31.6941 9.66867 31.6941 7.56697 30.3978 6.27068C29.1015 4.97439 26.9998 4.97439 25.7035 6.27068L24.9962 6.97796L24.2879 6.26964C22.9916 4.97335 20.8899 4.97335 19.5936 6.26964Z"/>
</mask>
<path fill-rule="evenodd" clip-rule="evenodd" d="M19.5936 6.26964C18.2973 7.56593 18.2973 9.66763 19.5936 10.9639L24.9958 16.3661L24.9962 16.3657L24.9966 16.3661L30.3978 10.965C31.6941 9.66867 31.6941 7.56697 30.3978 6.27068C29.1015 4.97439 26.9998 4.97439 25.7035 6.27068L24.9962 6.97796L24.2879 6.26964C22.9916 4.97335 20.8899 4.97335 19.5936 6.26964Z" fill="#CB202A"/>
<path d="M19.5936 10.9639L20.3007 10.2568H20.3007L19.5936 10.9639ZM19.5936 6.26964L20.3007 6.97675L19.5936 6.26964ZM24.9958 16.3661L24.2887 17.0732C24.4763 17.2608 24.7308 17.3662 24.9962 17.3661C25.2615 17.366 25.5159 17.2605 25.7034 17.0728L24.9958 16.3661ZM24.9962 16.3657L25.7033 15.6586C25.5157 15.471 25.2612 15.3657 24.9959 15.3657C24.7306 15.3658 24.4762 15.4714 24.2887 15.6591L24.9962 16.3657ZM24.9966 16.3661L24.2895 17.0732C24.477 17.2608 24.7314 17.3661 24.9966 17.3661C25.2618 17.3661 25.5162 17.2608 25.7037 17.0732L24.9966 16.3661ZM30.3978 10.965L31.1049 11.6721V11.6721L30.3978 10.965ZM30.3978 6.27068L29.6907 6.97779V6.97779L30.3978 6.27068ZM25.7035 6.27068L24.9964 5.56358L24.9964 5.56358L25.7035 6.27068ZM24.9962 6.97796L24.2891 7.68506C24.4766 7.8726 24.731 7.97796 24.9962 7.97796C25.2614 7.97796 25.5158 7.8726 25.7033 7.68506L24.9962 6.97796ZM24.2879 6.26964L23.5808 6.97675V6.97675L24.2879 6.26964ZM20.3007 10.2568C19.395 9.35104 19.395 7.88251 20.3007 6.97675L18.8865 5.56253C17.1997 7.24935 17.1997 9.98421 18.8865 11.671L20.3007 10.2568ZM25.7029 15.659L20.3007 10.2568L18.8865 11.671L24.2887 17.0732L25.7029 15.659ZM24.2887 15.6591L24.2883 15.6595L25.7034 17.0728L25.7038 17.0724L24.2887 15.6591ZM25.7037 15.659L25.7033 15.6586L24.2891 17.0729L24.2895 17.0732L25.7037 15.659ZM29.6907 10.2578L24.2895 15.659L25.7037 17.0732L31.1049 11.6721L29.6907 10.2578ZM29.6907 6.97779C30.5964 7.88355 30.5964 9.35209 29.6907 10.2578L31.1049 11.6721C32.7917 9.98525 32.7917 7.25039 31.1049 5.56358L29.6907 6.97779ZM26.4106 6.97779C27.3164 6.07203 28.7849 6.07203 29.6907 6.97779L31.1049 5.56358C29.4181 3.87676 26.6832 3.87676 24.9964 5.56358L26.4106 6.97779ZM25.7033 7.68506L26.4106 6.97779L24.9964 5.56358L24.2891 6.27085L25.7033 7.68506ZM23.5808 6.97675L24.2891 7.68506L25.7033 6.27085L24.995 5.56253L23.5808 6.97675ZM20.3007 6.97675C21.2065 6.07098 22.675 6.07098 23.5808 6.97675L24.995 5.56253C23.3082 3.87572 20.5733 3.87572 18.8865 5.56253L20.3007 6.97675Z" fill="black" mask="url(#path-7-outside-1_40_153)"/>
<path fill-rule="evenodd" clip-rule="evenodd" d="M19.6414 6.30791C18.3613 7.58801 18.2008 9.50296 19.2829 10.5851L22.9486 14.2508C23.0797 14.4437 23.2297 14.6258 23.3989 14.7951L24.0662 15.4623L29.3614 10.1671C30.6323 8.89623 30.8075 7.011 29.7528 5.95632C28.6982 4.90164 26.8129 5.07689 25.5421 6.34776L24.9295 6.96033L23.9186 5.94941C22.8365 4.8673 20.9215 5.0278 19.6414 6.30791Z" fill="#D6353F"/>
<rect x="7.34184" y="18.513" width="14.3954" height="14.3954" rx="7.19771" fill="#EF8A13" stroke="#071628"/>
<path fill-rule="evenodd" clip-rule="evenodd" d="M6.85509 25.2551C7.01088 22.5859 8.52672 20.2819 10.7197 19.0261C11.4652 18.7154 12.2831 18.5439 13.1411 18.5439C16.62 18.5439 19.4403 21.3642 19.4403 24.8431C19.4403 28.3221 16.62 31.1424 13.1411 31.1424C9.80052 31.1424 7.0673 28.5421 6.85509 25.2551Z" fill="#FC9824"/>
<rect x="7.34184" y="18.513" width="14.3954" height="14.3954" rx="7.19771" stroke="#071628"/>
<rect x="28.3043" y="18.513" width="14.3954" height="14.3954" rx="7.19771" fill="#DEA000" stroke="#071628"/>
<path fill-rule="evenodd" clip-rule="evenodd" d="M27.8175 25.2551C27.9733 22.5859 29.4892 20.2819 31.6822 19.0261C32.4276 18.7154 33.2455 18.5439 34.1035 18.5439C37.5825 18.5439 40.4027 21.3642 40.4027 24.8431C40.4027 28.3221 37.5825 31.1424 34.1035 31.1424C30.763 31.1424 28.0297 28.5421 27.8175 25.2551Z" fill="#EDAD0B"/>
<rect x="28.3043" y="18.513" width="14.3954" height="14.3954" rx="7.19771" stroke="#071628"/>
<path d="M33.4076 23.8579C33.4536 23.8223 33.5227 23.8579 33.5227 23.8579" stroke="black" stroke-linecap="round"/>
<path d="M37.4813 23.8579C37.5274 23.8223 37.5964 23.8579 37.5964 23.8579" stroke="black" stroke-linecap="round"/>
<path d="M33.2777 28.0177C34.682 29.389 36.1866 29.3621 37.7263 28.0177" stroke="#071628" stroke-width="0.75" stroke-linecap="round" stroke-linejoin="round"/>
<path d="M12.3153 28.0177C13.7196 29.389 15.2241 29.3621 16.7638 28.0177" stroke="#071628" stroke-width="0.75" stroke-linecap="round" stroke-linejoin="round"/>
<path d="M12.4451 23.853C12.4912 23.8174 12.5602 23.853 12.5602 23.853" stroke="black" stroke-linecap="round"/>
<path d="M16.5189 23.853C16.5649 23.8174 16.634 23.853 16.634 23.853" stroke="black" stroke-linecap="round"/>
</svg>
