<svg width="51" height="50" viewBox="0 0 51 50" fill="none" xmlns="http://www.w3.org/2000/svg">
<path d="M15.3536 42.1754C14.9456 42.5833 14.2843 42.5833 13.8763 42.1754L8.27577 36.5748C7.86785 36.1669 7.86785 35.5055 8.27577 35.0976L36.2598 7.11363C36.6677 6.7057 37.3291 6.7057 37.737 7.11363L43.3376 12.7142C43.7455 13.1221 43.7455 13.7835 43.3376 14.1914L15.3536 42.1754Z" fill="#5289DC"/>
<path fill-rule="evenodd" clip-rule="evenodd" d="M14.615 40.9444L42.1065 13.4528L36.9984 8.34465L9.50679 35.8362L14.615 40.9444ZM13.8763 42.1754C14.2843 42.5833 14.9456 42.5833 15.3536 42.1754L43.3376 14.1914C43.7455 13.7835 43.7455 13.1221 43.3376 12.7142L37.737 7.11363C37.3291 6.7057 36.6677 6.70571 36.2598 7.11363L8.27577 35.0976C7.86785 35.5055 7.86785 36.1669 8.27577 36.5748L13.8763 42.1754Z" fill="#071628"/>
<path fill-rule="evenodd" clip-rule="evenodd" d="M11.5618 32.6869C11.7658 32.483 12.0965 32.483 12.3005 32.6869L16.1343 36.5208C16.3382 36.7247 16.3382 37.0554 16.1343 37.2594C15.9303 37.4633 15.5996 37.4633 15.3956 37.2594L11.5618 33.4256C11.3579 33.2216 11.3579 32.8909 11.5618 32.6869Z" fill="#071628"/>
<path fill-rule="evenodd" clip-rule="evenodd" d="M13.4534 30.7954C13.6574 30.5914 13.9881 30.5914 14.192 30.7954L16.0204 32.6238C16.2244 32.8278 16.2244 33.1585 16.0204 33.3624C15.8165 33.5664 15.4858 33.5664 15.2818 33.3624L13.4534 31.534C13.2494 31.33 13.2494 30.9993 13.4534 30.7954Z" fill="#071628"/>
<path fill-rule="evenodd" clip-rule="evenodd" d="M23.9214 20.3275C24.1253 20.1235 24.456 20.1235 24.66 20.3275L26.4884 22.1559C26.6924 22.3599 26.6924 22.6905 26.4884 22.8945C26.2844 23.0985 25.9537 23.0985 25.7498 22.8945L23.9214 21.0661C23.7174 20.8621 23.7174 20.5314 23.9214 20.3275Z" fill="#071628"/>
<path fill-rule="evenodd" clip-rule="evenodd" d="M15.4195 28.8294C15.6234 28.6254 15.9541 28.6254 16.1581 28.8294L17.9865 30.6578C18.1905 30.8618 18.1905 31.1924 17.9865 31.3964C17.7825 31.6004 17.4519 31.6004 17.2479 31.3964L15.4195 29.568C15.2155 29.364 15.2155 29.0333 15.4195 28.8294Z" fill="#071628"/>
<path fill-rule="evenodd" clip-rule="evenodd" d="M25.8874 18.3614C26.0913 18.1574 26.422 18.1574 26.626 18.3614L28.4544 20.1898C28.6584 20.3938 28.6584 20.7245 28.4544 20.9284C28.2505 21.1324 27.9198 21.1324 27.7158 20.9284L25.8874 19.1C25.6834 18.8961 25.6834 18.5654 25.8874 18.3614Z" fill="#071628"/>
<path fill-rule="evenodd" clip-rule="evenodd" d="M17.3855 26.8633C17.5895 26.6593 17.9202 26.6593 18.1241 26.8633L19.9526 28.6917C20.1565 28.8957 20.1565 29.2264 19.9526 29.4303C19.7486 29.6343 19.4179 29.6343 19.2139 29.4303L17.3855 27.6019C17.1815 27.3979 17.1815 27.0672 17.3855 26.8633Z" fill="#071628"/>
<path fill-rule="evenodd" clip-rule="evenodd" d="M27.8534 16.3954C28.0574 16.1914 28.3881 16.1914 28.5921 16.3954L30.4205 18.2238C30.6244 18.4278 30.6244 18.7584 30.4205 18.9624C30.2165 19.1664 29.8858 19.1664 29.6819 18.9624L27.8534 17.134C27.6495 16.93 27.6495 16.5993 27.8534 16.3954Z" fill="#071628"/>
<path fill-rule="evenodd" clip-rule="evenodd" d="M19.3516 24.8972C19.5555 24.6933 19.8862 24.6933 20.0902 24.8972L21.9186 26.7256C22.1226 26.9296 22.1226 27.2603 21.9186 27.4643C21.7146 27.6682 21.384 27.6682 21.18 27.4643L19.3516 25.6358C19.1476 25.4319 19.1476 25.1012 19.3516 24.8972Z" fill="#071628"/>
<path fill-rule="evenodd" clip-rule="evenodd" d="M29.8195 14.4293C30.0235 14.2253 30.3541 14.2253 30.5581 14.4293L32.3865 16.2577C32.5905 16.4617 32.5905 16.7924 32.3865 16.9963C32.1826 17.2003 31.8519 17.2003 31.6479 16.9963L29.8195 15.1679C29.6155 14.9639 29.6155 14.6332 29.8195 14.4293Z" fill="#071628"/>
<path fill-rule="evenodd" clip-rule="evenodd" d="M21.7676 22.4812C21.9715 22.2773 22.3022 22.2773 22.5062 22.4812L26.34 26.315C26.5439 26.519 26.5439 26.8497 26.34 27.0537C26.136 27.2576 25.8053 27.2576 25.6014 27.0537L21.7676 23.2199C21.5636 23.0159 21.5636 22.6852 21.7676 22.4812Z" fill="#071628"/>
<path fill-rule="evenodd" clip-rule="evenodd" d="M31.9733 12.2755C32.1773 12.0715 32.5079 12.0715 32.7119 12.2755L36.5457 16.1093C36.7497 16.3132 36.7497 16.6439 36.5457 16.8479C36.3417 17.0519 36.0111 17.0519 35.8071 16.8479L31.9733 13.0141C31.7693 12.8101 31.7693 12.4794 31.9733 12.2755Z" fill="#071628"/>
<circle cx="36.9579" cy="26.7742" r="0.86038" fill="white"/>
<circle cx="39.1805" cy="26.7742" r="0.86038" fill="white"/>
<circle cx="41.4032" cy="26.7742" r="0.86038" fill="white"/>
<path d="M34.1574 40.4463C34.0879 40.4311 34.0243 40.3963 33.9741 40.346L15.9723 22.3443C15.5372 21.9092 15.5372 21.2038 15.9723 20.7687L21.9309 14.8101C22.366 14.375 23.0714 14.375 23.5065 14.8101L41.5082 32.8118C41.5585 32.8621 41.5933 32.9257 41.6085 32.9952L43.3208 40.8323C43.4941 41.6256 42.7878 42.3319 41.9945 42.1585L34.1574 40.4463Z" fill="#EDAD0B"/>
<path fill-rule="evenodd" clip-rule="evenodd" d="M34.7935 39.0647L41.7459 40.5837L40.2269 33.6313L22.7187 16.1231L17.2853 21.5565L34.7935 39.0647ZM33.9741 40.346C34.0243 40.3963 34.0879 40.4311 34.1574 40.4463L41.9945 42.1585C42.7878 42.3319 43.4941 41.6256 43.3208 40.8323L41.6085 32.9952C41.5933 32.9257 41.5585 32.8621 41.5082 32.8118L23.5065 14.8101C23.0714 14.375 22.366 14.375 21.9309 14.8101L15.9723 20.7687C15.5372 21.2038 15.5372 21.9092 15.9723 22.3443L33.9741 40.346Z" fill="#071628"/>
<path d="M15.9387 20.21C15.3586 20.7901 14.4181 20.7901 13.8379 20.21L8.58757 14.9596C8.00745 14.3795 8.00745 13.4389 8.58757 12.8588L14.021 7.42541C14.6011 6.84529 15.5416 6.84529 16.1218 7.42541L21.3721 12.6758C21.9523 13.2559 21.9523 14.1965 21.3721 14.7766L15.9387 20.21Z" fill="#FC9824"/>
<path fill-rule="evenodd" clip-rule="evenodd" d="M9.63797 13.9092L14.8883 19.1596L20.3217 13.7262L15.0714 8.47581L9.63797 13.9092ZM13.8379 20.21C14.4181 20.7901 15.3586 20.7901 15.9387 20.21L21.3721 14.7766C21.9523 14.1965 21.9523 13.2559 21.3721 12.6758L16.1218 7.42541C15.5416 6.84529 14.6011 6.84529 14.021 7.42541L8.58757 12.8588C8.00745 13.4389 8.00745 14.3795 8.58757 14.9596L13.8379 20.21Z" fill="#071628"/>
<path d="M40.8042 37.9907C41.7235 37.9907 42.4687 38.7406 42.4687 39.6657C42.4687 40.5908 41.7235 41.3407 40.8042 41.3407C39.8849 41.3407 39.1397 40.5908 39.1397 39.6657C39.1397 38.7406 39.8849 37.9907 40.8042 37.9907Z" fill="#071628"/>
</svg>
