<svg width="1191" height="185" viewBox="0 0 1191 185" fill="none" xmlns="http://www.w3.org/2000/svg">
<path d="M73.7287 128.44C73.7287 129.914 74.9193 131.108 76.3931 131.108H101.154L75.5592 139.65C74.1527 140.107 73.3986 141.629 73.8554 143.018C74.2325 144.148 75.2839 144.853 76.3931 144.853C76.6716 144.853 76.9642 144.803 77.2442 144.72L118.448 130.976C119.692 130.567 120.463 129.309 120.247 128.013C120.034 126.723 118.922 125.771 117.612 125.771H76.3916C74.9193 125.773 73.7287 126.964 73.7287 128.44Z" fill="#014A99"/>
<path d="M115.712 154.032C115.666 154.08 109.483 160.118 97.0109 160.118C90.2834 160.118 85.3926 158.386 82.3136 156.764L118.445 144.72C119.853 144.246 120.604 142.726 120.149 141.335C119.67 139.928 118.167 139.173 116.759 139.65L75.5579 153.376C74.6724 153.671 74.0028 154.407 73.7916 155.305C73.5772 156.208 73.8542 157.156 74.5097 157.809C74.821 158.12 82.3293 165.454 97.0093 165.454C111.669 165.454 119.182 158.12 119.495 157.809C120.542 156.764 120.542 155.061 119.495 154.032C118.447 152.985 116.76 152.985 115.712 154.032Z" fill="#014A99"/>
<path d="M97.0109 22.7529C72.8059 22.7529 53.124 42.4354 53.124 66.6204C53.124 78.7778 59.6669 88.4978 65.4291 97.0585C69.8787 103.65 73.729 109.346 73.729 114.712C73.729 116.184 74.9196 117.378 76.3934 117.378C77.8672 117.378 79.0782 116.184 79.0782 114.712C79.0782 107.709 74.5911 101.081 69.863 94.0626C64.251 85.7506 58.4591 77.1602 58.4591 66.6204C58.4591 45.3829 75.7551 28.0877 97.0125 28.0877C118.254 28.0877 135.547 45.3844 135.547 66.6204C135.547 77.1602 129.738 85.7491 124.143 94.0626C119.414 101.081 114.947 107.711 114.947 114.712C114.947 116.184 116.139 117.378 117.613 117.378C119.085 117.378 120.282 116.184 120.282 114.712C120.282 109.346 124.126 103.65 128.576 97.0585C134.338 88.4978 140.882 78.7794 140.882 66.6204C140.882 42.4354 121.194 22.7529 97.0109 22.7529Z" fill="#014A99"/>
<path d="M99.6771 39.1479C99.6771 37.6757 98.4818 36.4805 97.0111 36.4805C80.3847 36.4805 66.853 50.0131 66.853 66.6198C66.853 68.1107 68.0483 69.3044 69.519 69.3044C71.0084 69.3044 72.2038 68.1107 72.2038 66.6198C72.2038 52.9589 83.3308 41.8309 97.0111 41.8309C98.4818 41.8309 99.6771 40.62 99.6771 39.1479Z" fill="#014A99"/>
<path d="M50.9788 36.4971C51.4545 36.8398 52.0114 37.004 52.5512 37.004C53.3851 37.004 54.1877 36.6286 54.7103 35.9073C55.577 34.7137 55.3142 33.0444 54.122 32.1761L37.4471 20.0515C36.2518 19.1848 34.584 19.4617 33.7157 20.657C32.849 21.8366 33.1118 23.5027 34.3055 24.3882L50.9788 36.4971Z" fill="#014A99"/>
<path d="M141.453 37.004C141.996 37.004 142.551 36.8398 143.029 36.4971L159.7 24.3882C160.896 23.5027 161.158 21.8366 160.287 20.657C159.42 19.4617 157.751 19.1848 156.556 20.0515L139.881 32.1761C138.689 33.0444 138.427 34.7137 139.294 35.9073C139.82 36.6286 140.621 37.004 141.453 37.004Z" fill="#014A99"/>
<path d="M172.564 63.9531H151.959C150.471 63.9531 149.277 65.1468 149.277 66.619C149.277 68.1099 150.471 69.3036 151.959 69.3036H172.564C174.033 69.3036 175.228 68.1099 175.228 66.619C175.228 65.1484 174.033 63.9531 172.564 63.9531Z" fill="#014A99"/>
<path d="M44.7301 66.6209C44.7301 65.1488 43.5348 63.9551 42.061 63.9551H21.442C19.9713 63.9535 18.7744 65.1488 18.7744 66.6209C18.7744 68.1119 19.9713 69.3055 21.442 69.3055H42.061C43.5348 69.304 44.7301 68.1103 44.7301 66.6209Z" fill="#014A99"/>
<path d="M143.029 96.7615C141.829 95.8948 140.159 96.1545 139.294 97.3513C138.427 98.5466 138.689 100.214 139.881 101.081L156.556 113.19C157.033 113.536 157.59 113.714 158.128 113.714C158.948 113.714 159.766 113.321 160.287 112.602C161.158 111.406 160.896 109.737 159.7 108.87L143.029 96.7615Z" fill="#014A99"/>
<path d="M50.9788 96.7615L34.3055 108.87C33.1102 109.737 32.8489 111.406 33.7157 112.602C34.2429 113.321 35.0565 113.714 35.8747 113.714C36.4301 113.714 36.9715 113.536 37.4471 113.19L54.122 101.081C55.3157 100.214 55.577 98.5466 54.7102 97.3513C53.8419 96.1545 52.1725 95.8948 50.9788 96.7615Z" fill="#014A99"/>
<path d="M1098 125.709C1094.21 125.709 1092.32 124.718 1092.32 122.736V71.8211H1077.34C1076.35 71.8211 1075.63 71.4495 1075.17 70.7062C1074.74 69.9629 1074.53 68.7595 1074.53 67.096V64.229C1074.53 62.5655 1074.74 61.3621 1075.17 60.6188C1075.63 59.8755 1076.35 59.5039 1077.34 59.5039H1121.99C1122.98 59.5039 1123.69 59.8755 1124.12 60.6188C1124.58 61.3621 1124.81 62.5655 1124.81 64.229V67.096C1124.81 68.7595 1124.58 69.9629 1124.12 70.7062C1123.69 71.4495 1122.98 71.8211 1121.99 71.8211H1106.97V122.736C1106.97 124.718 1105.08 125.709 1101.29 125.709H1098Z" fill="#131526"/>
<path d="M1050.53 126.347C1039.91 126.347 1032.07 123.586 1027.01 118.064C1021.99 112.543 1019.47 103.96 1019.47 92.3149C1019.47 69.9103 1029.99 58.708 1051.01 58.708C1053.88 58.708 1056.85 58.9912 1059.93 59.5575C1063.01 60.1238 1065.57 60.9202 1067.63 61.9466C1069.72 62.9376 1070.76 64.0526 1070.76 65.2914C1070.76 66.1762 1070.41 67.3442 1069.7 68.7954C1068.99 70.2112 1068.14 71.4677 1067.15 72.5649C1066.19 73.6621 1065.34 74.2107 1064.6 74.2107C1064.42 74.2107 1063.95 74.0337 1063.17 73.6798C1061.47 72.9719 1059.68 72.3879 1057.81 71.9278C1055.97 71.4323 1053.61 71.1845 1050.74 71.1845C1045.19 71.1845 1041.06 72.9542 1038.37 76.4937C1035.72 79.9977 1034.39 85.3068 1034.39 92.4211C1034.39 99.5354 1035.74 104.898 1038.43 108.508C1041.12 112.118 1045.15 113.923 1050.53 113.923C1053.33 113.923 1055.75 113.64 1057.81 113.074C1059.89 112.507 1061.93 111.782 1063.91 110.897C1064.02 110.862 1064.34 110.738 1064.87 110.525C1065.4 110.278 1065.79 110.154 1066.03 110.154C1066.96 110.154 1067.84 110.702 1068.69 111.799C1069.54 112.861 1070.23 114.082 1070.76 115.463C1071.29 116.808 1071.56 117.781 1071.56 118.383C1071.56 120.117 1070.39 121.586 1068.05 122.789C1065.75 123.993 1062.96 124.895 1059.66 125.497C1056.41 126.063 1053.36 126.347 1050.53 126.347Z" fill="#131526"/>
<path d="M981.62 126.347C975.886 126.347 970.966 125.444 966.86 123.639C962.79 121.834 959.675 119.233 957.516 115.835C955.357 112.402 954.277 108.278 954.277 103.464V62.3186C954.277 61.2921 954.738 60.5311 955.658 60.0356C956.578 59.5047 958.011 59.2393 959.958 59.2393H963.144C965.09 59.2393 966.506 59.5047 967.391 60.0356C968.311 60.5311 968.771 61.2921 968.771 62.3186V102.509C968.771 104.703 969.302 106.668 970.364 108.402C971.461 110.136 972.983 111.499 974.93 112.49C976.877 113.446 979.107 113.923 981.62 113.923C984.133 113.923 986.362 113.446 988.309 112.49C990.291 111.499 991.831 110.136 992.928 108.402C994.025 106.668 994.574 104.703 994.574 102.509V62.3186C994.574 61.2921 995.016 60.5311 995.901 60.0356C996.821 59.5047 998.255 59.2393 1000.2 59.2393H1003.33C1005.28 59.2393 1006.7 59.5047 1007.58 60.0356C1008.5 60.5311 1008.96 61.2921 1008.96 62.3186V103.464C1008.96 108.278 1007.88 112.402 1005.72 115.835C1003.56 119.233 1000.43 121.834 996.326 123.639C992.255 125.444 987.353 126.347 981.62 126.347Z" fill="#131526"/>
<path d="M892.691 125.55C891.382 125.55 890.426 125.249 889.824 124.647C889.223 124.045 888.922 123.09 888.922 121.78V63.2203C888.922 61.9107 889.223 60.9728 889.824 60.4065C890.426 59.8048 891.382 59.5039 892.691 59.5039H913.822C920.299 59.5039 925.785 60.7781 930.28 63.3265C934.811 65.8395 938.226 69.5559 940.527 74.4757C942.863 79.3955 944.031 85.3949 944.031 92.4737C944.031 99.588 942.863 105.605 940.527 110.525C938.226 115.445 934.811 119.179 930.28 121.727C925.785 124.276 920.299 125.55 913.822 125.55H892.691ZM913.822 113.179C918.848 113.179 922.653 111.427 925.236 107.923C927.82 104.384 929.112 99.234 929.112 92.4737C929.112 85.7488 927.82 80.6343 925.236 77.1303C922.653 73.5908 918.848 71.8211 913.822 71.8211H903.575V113.179H913.822Z" fill="#131526"/>
<path d="M847.882 126.347C841.44 126.347 835.954 125.037 831.424 122.418C826.929 119.799 823.496 115.976 821.124 110.95C818.788 105.889 817.62 99.73 817.62 92.4742C817.62 85.2537 818.788 79.1305 821.124 74.1045C823.496 69.0432 826.929 65.2206 831.424 62.6368C835.954 60.0176 841.44 58.708 847.882 58.708C854.359 58.708 859.846 60.0176 864.341 62.6368C868.871 65.2206 872.304 69.0432 874.64 74.1045C876.976 79.1305 878.144 85.2537 878.144 92.4742C878.144 99.73 876.976 105.889 874.64 110.95C872.304 115.976 868.871 119.799 864.341 122.418C859.846 125.037 854.359 126.347 847.882 126.347ZM847.882 113.923C852.944 113.923 856.766 112.1 859.35 108.455C861.934 104.774 863.226 99.4469 863.226 92.4742C863.226 85.5015 861.934 80.2101 859.35 76.5998C856.766 72.9896 852.944 71.1845 847.882 71.1845C842.856 71.1845 839.034 73.0073 836.414 76.6529C833.831 80.2632 832.539 85.5369 832.539 92.4742C832.539 99.4469 833.848 104.774 836.468 108.455C839.087 112.1 842.892 113.923 847.882 113.923Z" fill="#131526"/>
<path d="M767.926 125.709C764.139 125.709 762.246 124.718 762.246 122.736V63.2203C762.246 61.9107 762.546 60.9728 763.148 60.4065C763.75 59.8048 764.705 59.5039 766.015 59.5039H784.438C800.082 59.5039 807.904 65.3971 807.904 77.1834C807.904 80.7582 806.896 83.8375 804.878 86.4213C802.896 89.0051 800.224 90.9341 796.861 92.2083V92.5799C798.029 93.0754 799.25 94.1372 800.525 95.7654C801.834 97.3935 802.878 99.234 803.657 101.287L811.992 122.046C812.275 122.895 812.417 123.497 812.417 123.851C812.417 125.09 810.541 125.709 806.789 125.709H802.914C799.764 125.709 797.941 125.054 797.445 123.745L789.959 105.322C789.251 103.906 788.561 102.809 787.889 102.03C787.252 101.252 786.349 100.667 785.181 100.278C784.013 99.8534 782.438 99.6411 780.456 99.6411H776.793V122.736C776.793 124.718 774.899 125.709 771.112 125.709H767.926ZM785.712 87.1115C786.986 87.1115 788.19 86.7575 789.322 86.0496C790.455 85.3064 791.357 84.3153 792.03 83.0765C792.702 81.8377 793.039 80.475 793.039 78.9885C793.039 76.794 792.313 75.0597 790.862 73.7855C789.446 72.4759 787.517 71.8211 785.075 71.8211H776.793V87.1115H785.712Z" fill="#131526"/>
<path d="M714.091 125.709C710.304 125.709 708.411 124.718 708.411 122.736V63.2203C708.411 61.9107 708.711 60.9728 709.313 60.4065C709.915 59.8048 710.871 59.5039 712.18 59.5039H732.036C737.912 59.5039 743.115 60.9374 747.645 63.8043C752.176 66.6713 754.441 72.122 754.441 80.1565C754.441 85.678 753.131 89.9784 750.512 93.0577C747.893 96.1016 744.938 98.1545 741.646 99.2163C738.39 100.278 735.487 100.809 732.939 100.809H722.958V122.736C722.958 124.718 721.064 125.709 717.277 125.709H714.091ZM731.346 88.3326C733.611 88.3326 735.54 87.7309 737.133 86.5275C738.761 85.3241 739.575 83.2004 739.575 80.1565C739.575 77.0772 738.761 74.9181 737.133 73.6793C735.505 72.4405 733.576 71.8211 731.346 71.8211H722.958V88.3326H731.346Z" fill="#131526"/>
<path d="M655.956 126.347C645.338 126.347 637.498 123.586 632.437 118.064C627.411 112.543 624.898 103.96 624.898 92.3149C624.898 69.9103 635.41 58.708 656.434 58.708C659.301 58.708 662.274 58.9912 665.354 59.5575C668.433 60.1238 670.999 60.9202 673.052 61.9466C675.14 62.9376 676.184 64.0526 676.184 65.2914C676.184 66.1762 675.83 67.3442 675.122 68.7954C674.415 70.2112 673.565 71.4677 672.574 72.5649C671.618 73.6621 670.769 74.2107 670.026 74.2107C669.849 74.2107 669.371 74.0337 668.592 73.6798C666.893 72.9719 665.106 72.3879 663.23 71.9278C661.39 71.4323 659.036 71.1845 656.169 71.1845C650.612 71.1845 646.488 72.9542 643.799 76.4937C641.144 79.9977 639.817 85.3068 639.817 92.4211C639.817 99.5354 641.162 104.898 643.852 108.508C646.542 112.118 650.577 113.923 655.956 113.923C658.753 113.923 661.177 113.64 663.23 113.074C665.318 112.507 667.353 111.782 669.336 110.897C669.442 110.862 669.76 110.738 670.291 110.525C670.822 110.278 671.211 110.154 671.459 110.154C672.379 110.154 673.264 110.702 674.114 111.799C674.963 112.861 675.653 114.082 676.184 115.463C676.715 116.808 676.981 117.781 676.981 118.383C676.981 120.117 675.813 121.586 673.477 122.789C671.176 123.993 668.38 124.895 665.088 125.497C661.832 126.063 658.788 126.347 655.956 126.347Z" fill="#131526"/>
<path d="M605.626 125.815C603.714 125.815 602.281 125.55 601.325 125.019C600.405 124.488 599.945 123.727 599.945 122.736V62.3179C599.945 60.2297 601.838 59.1855 605.626 59.1855H608.917C610.864 59.1855 612.28 59.451 613.165 59.9819C614.085 60.5128 614.545 61.2915 614.545 62.3179V122.736C614.545 124.789 612.669 125.815 608.917 125.815H605.626Z" fill="#131526"/>
<path d="M565.807 126.347C555.189 126.347 547.349 123.586 542.288 118.064C537.262 112.543 534.749 103.96 534.749 92.3149C534.749 69.9103 545.261 58.708 566.285 58.708C569.152 58.708 572.16 58.9912 575.31 59.5575C578.496 60.1238 581.15 60.9202 583.274 61.9466C585.398 62.9376 586.46 64.0526 586.46 65.2914C586.46 66.1762 586.106 67.3442 585.398 68.7954C584.69 70.2112 583.858 71.4677 582.902 72.5649C581.947 73.6621 581.097 74.2107 580.354 74.2107C580.142 74.2107 579.629 74.0337 578.814 73.6798C577.045 72.9719 575.187 72.3879 573.24 71.9278C571.293 71.4323 568.886 71.1845 566.019 71.1845C560.463 71.1845 556.339 72.9542 553.649 76.4937C550.995 79.9977 549.667 85.3068 549.667 92.4211C549.667 99.5354 551.012 104.898 553.702 108.508C556.392 112.118 560.427 113.923 565.807 113.923C568.532 113.923 570.992 113.693 573.187 113.233V101.287H564.851C563.86 101.287 563.135 100.916 562.675 100.172C562.25 99.4292 562.038 98.2258 562.038 96.5622V93.536C562.038 91.9079 562.25 90.7222 562.675 89.9789C563.135 89.2356 563.86 88.864 564.851 88.864H584.017C585.362 88.864 586.336 89.1648 586.937 89.7665C587.539 90.3328 587.84 91.2708 587.84 92.5804V118.861C587.84 121.692 585.469 123.657 580.726 124.754C575.983 125.816 571.01 126.347 565.807 126.347Z" fill="#131526"/>
<path d="M489.196 125.55C487.887 125.55 486.931 125.249 486.329 124.647C485.728 124.045 485.427 123.09 485.427 121.78V63.2203C485.427 61.9107 485.728 60.9728 486.329 60.4065C486.931 59.8048 487.887 59.5039 489.196 59.5039H523.759C524.75 59.5039 525.458 59.8755 525.882 60.6188C526.343 61.3621 526.573 62.5655 526.573 64.229V67.096C526.573 68.7595 526.343 69.9629 525.882 70.7062C525.458 71.4495 524.75 71.8211 523.759 71.8211H499.974V85.5187H521.21C522.201 85.5187 522.909 85.8904 523.334 86.6337C523.794 87.3769 524.024 88.5803 524.024 90.2439V93.1639C524.024 94.8274 523.794 96.0308 523.334 96.7741C522.909 97.5174 522.201 97.889 521.21 97.889H499.974V113.179H523.812C524.803 113.179 525.511 113.551 525.936 114.294C526.396 115.038 526.626 116.223 526.626 117.851V120.825C526.626 122.488 526.396 123.692 525.936 124.435C525.511 125.178 524.803 125.55 523.812 125.55H489.196Z" fill="#131526"/>
<path d="M451.342 125.709C447.555 125.709 445.661 124.718 445.661 122.736V71.8211H430.689C429.698 71.8211 428.973 71.4495 428.513 70.7062C428.088 69.9629 427.875 68.7595 427.875 67.096V64.229C427.875 62.5655 428.088 61.3621 428.513 60.6188C428.973 59.8755 429.698 59.5039 430.689 59.5039H475.339C476.33 59.5039 477.038 59.8755 477.463 60.6188C477.923 61.3621 478.153 62.5655 478.153 64.229V67.096C478.153 68.7595 477.923 69.9629 477.463 70.7062C477.038 71.4495 476.33 71.8211 475.339 71.8211H460.314V122.736C460.314 124.718 458.421 125.709 454.634 125.709H451.342Z" fill="#131526"/>
<path d="M378.819 125.71C374.961 125.71 373.032 125.02 373.032 123.639C373.032 123.25 373.156 122.684 373.403 121.94L394.215 61.2567C394.711 59.9117 396.498 59.2393 399.577 59.2393H404.462C407.541 59.2393 409.329 59.9117 409.824 61.2567L430.636 121.94C430.813 122.648 430.901 123.214 430.901 123.639C430.901 124.347 430.512 124.878 429.733 125.232C428.99 125.551 427.804 125.71 426.176 125.71H422.035C420.549 125.71 419.345 125.568 418.425 125.285C417.54 124.967 416.991 124.453 416.779 123.745L412.957 112.225H390.711L386.889 123.745C386.499 125.055 385.048 125.71 382.535 125.71H378.819ZM408.922 99.7481L403.559 82.9711C403.241 82.1217 402.958 81.1483 402.71 80.0511C402.498 78.9539 402.303 77.9098 402.126 76.9187H401.754L401.542 78.0867C401.188 80.175 400.781 81.8031 400.321 82.9711L394.746 99.7481H408.922Z" fill="#131526"/>
<path d="M327.586 125.709C323.798 125.709 321.905 124.718 321.905 122.736V63.2203C321.905 61.9107 322.206 60.9728 322.807 60.4065C323.409 59.8048 324.365 59.5039 325.674 59.5039H344.097C359.741 59.5039 367.563 65.3971 367.563 77.1834C367.563 80.7582 366.555 83.8375 364.537 86.4213C362.555 89.0051 359.883 90.9341 356.52 92.2083V92.5799C357.688 93.0754 358.91 94.1372 360.184 95.7654C361.493 97.3935 362.537 99.234 363.316 101.287L371.651 122.046C371.935 122.895 372.076 123.497 372.076 123.851C372.076 125.09 370.2 125.709 366.449 125.709H362.573C359.423 125.709 357.6 125.054 357.104 123.745L349.619 105.322C348.911 103.906 348.22 102.809 347.548 102.03C346.911 101.252 346.008 100.667 344.84 100.278C343.672 99.8534 342.097 99.6411 340.115 99.6411H336.452V122.736C336.452 124.718 334.558 125.709 330.771 125.709H327.586ZM345.371 87.1115C346.645 87.1115 347.849 86.7575 348.981 86.0496C350.114 85.3064 351.017 84.3153 351.689 83.0765C352.362 81.8377 352.698 80.475 352.698 78.9885C352.698 76.794 351.972 75.0597 350.521 73.7855C349.105 72.4759 347.176 71.8211 344.734 71.8211H336.452V87.1115H345.371Z" fill="#131526"/>
<path d="M287.82 125.709C284.033 125.709 282.139 124.718 282.139 122.736V71.8211H267.167C266.176 71.8211 265.451 71.4495 264.991 70.7062C264.566 69.9629 264.354 68.7595 264.354 67.096V64.229C264.354 62.5655 264.566 61.3621 264.991 60.6188C265.451 59.8755 266.176 59.5039 267.167 59.5039H311.817C312.808 59.5039 313.516 59.8755 313.941 60.6188C314.401 61.3621 314.631 62.5655 314.631 64.229V67.096C314.631 68.7595 314.401 69.9629 313.941 70.7062C313.516 71.4495 312.808 71.8211 311.817 71.8211H296.792V122.736C296.792 124.718 294.899 125.709 291.112 125.709H287.82Z" fill="#131526"/>
<path d="M240.569 126.347C236.109 126.347 232.18 125.904 228.782 125.019C225.42 124.099 222.836 122.984 221.031 121.674C219.261 120.365 218.376 119.126 218.376 117.958C218.376 117.038 218.713 115.905 219.385 114.56C220.093 113.215 220.925 112.065 221.881 111.109C222.836 110.118 223.633 109.623 224.27 109.623C224.659 109.623 225.491 109.959 226.765 110.631C228.676 111.623 230.481 112.419 232.18 113.021C233.915 113.622 235.897 113.923 238.126 113.923C240.604 113.923 242.692 113.445 244.391 112.49C246.126 111.499 246.993 109.782 246.993 107.34C246.993 105.924 246.55 104.703 245.665 103.676C244.781 102.65 243.648 101.783 242.268 101.075C240.887 100.367 239.011 99.5354 236.64 98.5797L232.446 96.7746C229.897 95.5358 227.703 94.1731 225.862 92.6866C224.057 91.2 222.571 89.2356 221.403 86.7934C220.27 84.3512 219.704 81.3604 219.704 77.8209C219.704 73.5028 220.766 69.9103 222.889 67.0434C225.013 64.1764 227.774 62.0705 231.172 60.7255C234.569 59.3805 238.215 58.708 242.108 58.708C245.294 58.708 248.178 59.0443 250.762 59.7167C253.346 60.3538 255.364 61.1856 256.815 62.212C258.301 63.2385 259.045 64.2649 259.045 65.2914C259.045 66.1408 258.761 67.238 258.195 68.583C257.664 69.8926 256.992 71.0429 256.178 72.034C255.364 73.025 254.603 73.5205 253.895 73.5205C253.576 73.5205 253.01 73.3436 252.196 72.9896C250.886 72.4587 249.559 72.034 248.214 71.7154C246.904 71.3615 245.294 71.1845 243.383 71.1845C240.091 71.1845 237.808 71.7154 236.534 72.7773C235.26 73.8037 234.622 75.0248 234.622 76.4406C234.622 78.0687 235.047 79.4314 235.897 80.5286C236.782 81.6258 237.879 82.5284 239.188 83.2363C240.533 83.9442 242.392 84.7582 244.763 85.6785C248.338 87.2004 251.258 88.6516 253.523 90.032C255.788 91.377 257.735 93.3236 259.363 95.872C261.027 98.4204 261.858 101.677 261.858 105.641C261.858 110.49 260.832 114.472 258.779 117.586C256.762 120.666 254.142 122.896 250.922 124.276C247.736 125.656 244.285 126.347 240.569 126.347Z" fill="#131526"/>
</svg>
