<svg width="50" height="50" viewBox="0 0 50 50" fill="none" xmlns="http://www.w3.org/2000/svg">
<g clip-path="url(#clip0_129_1056)">
<path fill-rule="evenodd" clip-rule="evenodd" d="M41.421 19.8672C41.8649 20.1957 41.9585 20.8219 41.63 21.2659L34.265 31.2198C34.0764 31.4747 33.7782 31.625 33.4611 31.625H25.1434L17.8907 34.3596L12.9183 39.3321C12.5277 39.7226 11.8946 39.7226 11.504 39.3321C11.1135 38.9416 11.1135 38.3084 11.504 37.9179L16.629 32.7929C16.7295 32.6924 16.8503 32.6145 16.9833 32.5643L24.6083 29.6893C24.7211 29.6468 24.8406 29.625 24.9611 29.625H32.9571L40.0223 20.0763C40.3508 19.6323 40.977 19.5387 41.421 19.8672Z" fill="#071628"/>
<mask id="path-2-outside-1_129_1056" maskUnits="userSpaceOnUse" x="6.21114" y="5.3197" width="38" height="41" fill="black">
<rect fill="white" x="6.21114" y="5.3197" width="38" height="41"/>
<path fill-rule="evenodd" clip-rule="evenodd" d="M8.74574 6.3197H7.21114V42.625V44.4442H8.74574L42.7889 44.4442V42.625H8.74574V6.3197Z"/>
</mask>
<path fill-rule="evenodd" clip-rule="evenodd" d="M8.74574 6.3197H7.21114V42.625V44.4442H8.74574L42.7889 44.4442V42.625H8.74574V6.3197Z" fill="#1852AB"/>
<path d="M7.21114 6.3197V5.3197C6.65886 5.3197 6.21114 5.76742 6.21114 6.3197H7.21114ZM8.74574 6.3197H9.74574C9.74574 5.76742 9.29802 5.3197 8.74574 5.3197V6.3197ZM7.21114 44.4442H6.21114C6.21114 44.9965 6.65886 45.4442 7.21114 45.4442V44.4442ZM8.74574 44.4442L8.74574 43.4442H8.74574V44.4442ZM42.7889 44.4442V45.4442C43.0541 45.4442 43.3084 45.3388 43.496 45.1513C43.6835 44.9638 43.7889 44.7094 43.7889 44.4442H42.7889ZM42.7889 42.625H43.7889C43.7889 42.0727 43.3411 41.625 42.7889 41.625V42.625ZM8.74574 42.625H7.74574C7.74574 43.1773 8.19345 43.625 8.74574 43.625V42.625ZM7.21114 7.3197H8.74574V5.3197H7.21114V7.3197ZM8.21114 42.625V6.3197H6.21114V42.625H8.21114ZM8.21114 44.4442V42.625H6.21114V44.4442H8.21114ZM8.74574 43.4442H7.21114V45.4442H8.74574V43.4442ZM42.7889 43.4442L8.74574 43.4442L8.74574 45.4442L42.7889 45.4442V43.4442ZM41.7889 42.625V44.4442H43.7889V42.625H41.7889ZM8.74574 43.625H42.7889V41.625H8.74574V43.625ZM7.74574 6.3197V42.625H9.74574V6.3197H7.74574Z" fill="#071628" mask="url(#path-2-outside-1_129_1056)"/>
<path d="M32.1585 16.414C32.1585 20.8798 28.5382 24.5 24.0725 24.5C19.6067 24.5 15.9864 20.8798 15.9864 16.414C15.9864 11.9482 19.6067 8.32794 24.0725 8.32794C28.5382 8.32794 32.1585 11.9482 32.1585 16.414Z" fill="#49AA27" stroke="#071628"/>
<path d="M24.1215 20.0931C23.6364 20.0931 23.209 20.0449 22.8393 19.9487C22.4735 19.8486 22.1925 19.7273 21.9961 19.5848C21.8036 19.4423 21.7073 19.3076 21.7073 19.1805C21.7073 19.0804 21.7439 18.9572 21.817 18.8109C21.8941 18.6645 21.9845 18.5394 22.0885 18.4354C22.1925 18.3276 22.2791 18.2737 22.3484 18.2737C22.3908 18.2737 22.4812 18.3103 22.6199 18.3835C22.8278 18.4913 23.0242 18.5779 23.209 18.6434C23.3977 18.7088 23.6133 18.7416 23.8559 18.7416C24.1254 18.7416 24.3526 18.6896 24.5374 18.5856C24.7261 18.4778 24.8204 18.2911 24.8204 18.0254C24.8204 17.8714 24.7723 17.7385 24.676 17.6269C24.5797 17.5152 24.4565 17.4209 24.3064 17.3438C24.1562 17.2668 23.9521 17.1764 23.6941 17.0724L23.2379 16.876C22.9606 16.7413 22.7219 16.593 22.5217 16.4313C22.3253 16.2696 22.1636 16.0559 22.0365 15.7902C21.9133 15.5245 21.8517 15.1991 21.8517 14.8141C21.8517 14.3443 21.9672 13.9535 22.1982 13.6416C22.4293 13.3298 22.7296 13.1007 23.0992 12.9543C23.4689 12.808 23.8655 12.7349 24.289 12.7349C24.6356 12.7349 24.9494 12.7714 25.2305 12.8446C25.5115 12.9139 25.731 13.0044 25.8889 13.1161C26.0506 13.2277 26.1315 13.3394 26.1315 13.451C26.1315 13.5435 26.1007 13.6628 26.0391 13.8091C25.9813 13.9516 25.9081 14.0767 25.8196 14.1846C25.731 14.2924 25.6482 14.3463 25.5712 14.3463C25.5366 14.3463 25.475 14.327 25.3864 14.2885C25.2439 14.2308 25.0995 14.1846 24.9532 14.1499C24.8108 14.1114 24.6356 14.0921 24.4276 14.0921C24.0696 14.0921 23.8212 14.1499 23.6826 14.2654C23.544 14.3771 23.4747 14.5099 23.4747 14.6639C23.4747 14.8411 23.5209 14.9893 23.6133 15.1087C23.7095 15.228 23.8289 15.3262 23.9714 15.4032C24.1177 15.4802 24.3198 15.5688 24.5778 15.6689C24.9667 15.8345 25.2844 15.9923 25.5308 16.1425C25.7772 16.2888 25.989 16.5006 26.1661 16.7778C26.3471 17.0551 26.4376 17.4093 26.4376 17.8406C26.4376 18.3681 26.3259 18.8012 26.1026 19.1401C25.8831 19.4751 25.5982 19.7176 25.2478 19.8678C24.9012 20.018 24.5258 20.0931 24.1215 20.0931Z" fill="white"/>
<line x1="23.9734" y1="12.3082" x2="23.9734" y2="12.9176" stroke="white" stroke-width="0.75" stroke-linecap="round"/>
<line x1="23.9734" y1="19.9917" x2="23.9734" y2="20.6011" stroke="white" stroke-width="0.75" stroke-linecap="round"/>
</g>
<defs>
<clipPath id="clip0_129_1056">
<rect width="50" height="50" fill="white"/>
</clipPath>
</defs>
</svg>
