<svg width="50" height="50" viewBox="0 0 50 50" fill="none" xmlns="http://www.w3.org/2000/svg">
<g clip-path="url(#clip0_38_495)">
<path d="M9.58076 7.94028H31.8818C40.7516 7.94028 43.1746 20.143 34.9777 23.5319V23.5319C34.0174 23.9289 32.9898 24.1375 31.9507 24.1463L13.5184 24.3032C7.2948 24.3561 2.89562 30.4125 4.76979 36.3474V36.3474C5.98596 40.1987 9.55849 42.8169 13.5972 42.8169H39.4058" stroke="#071628" stroke-linecap="round"/>
<rect x="5.48953" y="4.8419" width="6.19677" height="6.19677" rx="3.09838" fill="#CB202A" stroke="#071628"/>
<path fill-rule="evenodd" clip-rule="evenodd" d="M5.77608 7.87658C5.81643 6.83881 6.39171 5.93833 7.23392 5.44312C7.52804 5.31595 7.85241 5.24548 8.19323 5.24548C9.5294 5.24548 10.6126 6.32866 10.6126 7.66483V7.77244C10.6126 9.10861 9.5294 10.1918 8.19323 10.1918C6.89195 10.1918 5.83062 9.16444 5.77608 7.87658Z" fill="#D6353F"/>
<rect x="5.48953" y="4.8419" width="6.19677" height="6.19677" rx="3.09838" stroke="#071628"/>
<rect x="8.69427" y="38.9613" width="6.19677" height="6.19677" rx="3.09838" fill="#3D9C1C" stroke="#071628"/>
<path fill-rule="evenodd" clip-rule="evenodd" d="M8.98082 41.996C9.02117 40.9583 9.59643 40.0578 10.4386 39.5626C10.7328 39.4354 11.0571 39.3649 11.398 39.3649C12.7341 39.3649 13.8173 40.4481 13.8173 41.7843V41.8919C13.8173 43.228 12.7341 44.3112 11.398 44.3112C10.0967 44.3112 9.03537 43.2839 8.98082 41.996Z" fill="#49AA27"/>
<rect x="8.69427" y="38.9613" width="6.19677" height="6.19677" rx="3.09838" stroke="#071628"/>
<rect x="30.1487" y="4.8419" width="6.19677" height="6.19677" rx="3.09838" fill="#EB6938" stroke="#071628"/>
<path fill-rule="evenodd" clip-rule="evenodd" d="M30.4352 7.8766C30.4756 6.83883 31.0508 5.93834 31.893 5.44313C32.1872 5.31595 32.5115 5.24548 32.8524 5.24548C34.1885 5.24548 35.2717 6.32866 35.2717 7.66483V7.77244C35.2717 9.10861 34.1885 10.1918 32.8524 10.1918C31.5511 10.1918 30.4898 9.16446 30.4352 7.8766Z" fill="#EB6938"/>
<rect x="30.1487" y="4.8419" width="6.19677" height="6.19677" rx="3.09838" stroke="#071628"/>
<rect x="18.7999" y="21.1729" width="6.19677" height="6.19677" rx="3.09838" fill="#DEA000" stroke="#071628"/>
<path fill-rule="evenodd" clip-rule="evenodd" d="M19.0865 24.2076C19.1268 23.1699 19.7021 22.2694 20.5443 21.7742C20.8384 21.647 21.1628 21.5765 21.5036 21.5765C22.8398 21.5765 23.923 22.6597 23.923 23.9959V24.1035C23.923 25.4396 22.8398 26.5228 21.5036 26.5228C20.2023 26.5228 19.141 25.4955 19.0865 24.2076Z" fill="#EDAD0B"/>
<rect x="18.7999" y="21.1729" width="6.19677" height="6.19677" rx="3.09838" stroke="#071628"/>
<rect x="37.3454" y="40.5489" width="4.53597" height="4.53597" rx="2.26799" fill="#245DB4" stroke="#071628"/>
<path fill-rule="evenodd" clip-rule="evenodd" d="M37.4505 42.7679C37.4815 41.9696 37.924 41.2769 38.5719 40.896C38.7981 40.7982 39.0477 40.744 39.3098 40.744C40.3376 40.744 41.1709 41.5772 41.1709 42.605V42.6878C41.1709 43.7156 40.3376 44.5488 39.3098 44.5488C38.3088 44.5488 37.4924 43.7586 37.4505 42.7679Z" fill="#245DB4"/>
<rect x="37.3454" y="40.5489" width="4.53597" height="4.53597" rx="2.26799" stroke="#071628"/>
<path d="M39.6134 42.6464L39.6134 29.6369" stroke="black" stroke-linecap="round"/>
<path d="M40.417 29.1369C40.0028 29.1369 39.667 29.4727 39.667 29.8869V34.5397C39.667 34.9539 40.0028 35.2897 40.417 35.2897H46.6585C47.3104 35.2897 47.6519 34.5153 47.2123 34.0339L45.5497 32.2133L47.2123 30.3926C47.6519 29.9113 47.3104 29.1369 46.6585 29.1369H40.417Z" fill="#245DB4" stroke="#071628" stroke-linejoin="round"/>
</g>
<defs>
<clipPath id="clip0_38_495">
<rect width="50" height="50" fill="white"/>
</clipPath>
</defs>
</svg>
